<?xml version="1.0" standalone="no"?>
<!DOCTYPE svg PUBLIC "-//W3C//DTD SVG 20010904//EN"
 "http://www.w3.org/TR/2001/REC-SVG-20010904/DTD/svg10.dtd">
<svg version="1.0" xmlns="http://www.w3.org/2000/svg"
 width="2732.000000pt" height="2048.000000pt" viewBox="0 0 2732.000000 2048.000000"
 preserveAspectRatio="xMidYMid meet">

<g transform="translate(0.000000,2048.000000) scale(0.100000,-0.100000)"
fill="#000000" stroke="none">
<path d="M12362 15225 l-31 -26 -117 12 c-75 7 -227 10 -418 6 -295 -5 -454
-18 -766 -63 -268 -38 -757 -152 -975 -226 -140 -47 -473 -180 -660 -263 -222
-98 -695 -356 -936 -511 -92 -59 -428 -303 -499 -363 -161 -135 -455 -410
-526 -492 -375 -433 -447 -532 -674 -933 -117 -207 -216 -404 -270 -541 -65
-163 -320 -935 -359 -1086 -82 -321 -155 -739 -183 -1049 -8 -91 -13 -304 -13
-575 0 -476 4 -520 71 -855 50 -250 120 -516 214 -815 100 -320 159 -479 263
-705 44 -96 103 -227 132 -290 71 -157 150 -313 260 -515 51 -93 114 -213 140
-265 70 -140 126 -235 255 -435 64 -99 140 -220 169 -268 61 -101 134 -195
245 -316 43 -46 117 -137 166 -200 93 -123 157 -184 235 -226 57 -30 97 -32
139 -5 47 28 71 80 115 246 22 82 63 217 91 299 28 83 75 236 105 340 30 105
85 289 123 410 39 121 82 270 97 330 14 61 40 166 57 235 16 69 60 226 98 350
37 124 73 249 81 278 7 28 16 52 19 52 7 0 88 -204 279 -702 199 -521 277
-685 424 -903 48 -71 145 -215 214 -320 194 -292 308 -395 498 -450 154 -45
250 13 440 265 133 178 178 256 310 535 156 333 186 401 300 690 146 371 458
1150 512 1280 49 118 87 181 129 214 71 56 97 18 219 -321 37 -101 120 -341
185 -535 131 -388 181 -515 325 -833 53 -118 122 -271 152 -340 92 -211 172
-346 356 -600 220 -303 313 -383 447 -384 54 -1 73 4 112 26 130 77 193 207
328 678 186 650 289 1164 360 1799 22 193 53 389 68 430 7 21 23 -17 94 -230
94 -280 115 -331 293 -724 151 -334 543 -1118 620 -1240 136 -217 298 -395
403 -443 157 -72 335 6 443 193 89 153 157 423 193 765 16 144 66 993 66 1109
0 34 4 61 8 61 4 0 38 -97 75 -215 36 -118 83 -256 103 -307 65 -167 301 -619
397 -763 124 -185 302 -377 425 -458 261 -174 481 -190 747 -54 186 95 397
377 520 695 88 228 137 464 195 942 68 564 78 782 61 1350 -28 944 -42 1077
-162 1555 -33 132 -85 350 -115 485 -100 450 -120 510 -292 917 -61 142 -149
350 -197 463 -130 307 -281 592 -423 795 -104 148 -364 499 -411 555 -250 297
-609 642 -1071 1029 -105 88 -460 351 -605 448 -210 140 -532 316 -776 424
-362 159 -549 227 -934 340 -345 102 -488 135 -740 173 -202 30 -286 37 -525
46 -364 13 -426 17 -511 35 -105 22 -152 20 -187 -10z m-175 -185 c152 -10
477 -54 518 -70 14 -6 25 -17 25 -28 0 -27 48 -72 77 -72 51 0 80 53 75 138
-1 26 -18 25 288 12 203 -8 559 -56 715 -96 82 -21 510 -146 670 -196 371
-115 918 -366 1247 -571 159 -100 486 -330 633 -446 368 -291 896 -789 1110
-1046 135 -161 442 -585 538 -742 92 -151 242 -451 322 -648 31 -77 109 -261
172 -410 148 -346 197 -497 273 -835 34 -151 90 -390 125 -530 125 -500 135
-603 164 -1635 14 -481 1 -709 -70 -1280 -52 -422 -91 -614 -166 -815 -90
-242 -252 -495 -375 -586 -114 -83 -283 -134 -385 -115 -134 26 -265 101 -389
225 -151 151 -236 267 -365 502 -160 291 -254 495 -318 693 -246 759 -284 900
-296 1076 -8 109 -22 158 -53 174 -29 16 -74 14 -99 -4 -36 -25 -42 -69 -27
-211 16 -154 18 -739 4 -964 -5 -85 -16 -288 -25 -450 -29 -556 -75 -863 -161
-1083 -64 -162 -157 -246 -249 -223 -59 15 -191 158 -310 336 -137 206 -705
1370 -838 1720 -20 52 -68 192 -107 310 -81 249 -112 315 -159 347 -61 41
-122 26 -184 -47 -69 -80 -96 -196 -142 -606 -73 -642 -186 -1192 -380 -1848
-76 -259 -126 -383 -176 -440 -82 -93 -141 -53 -362 250 -189 260 -248 358
-352 589 -37 83 -107 238 -156 346 -135 299 -187 433 -312 805 -157 465 -242
703 -287 801 -99 213 -242 259 -403 129 -71 -57 -127 -157 -221 -396 -49 -124
-140 -353 -204 -510 -63 -157 -166 -413 -227 -570 -144 -365 -307 -733 -439
-989 -57 -111 -204 -318 -291 -408 -64 -67 -74 -73 -110 -73 -64 0 -177 60
-244 128 -31 32 -113 143 -183 247 -69 105 -158 235 -196 290 -161 231 -215
349 -489 1060 -208 541 -282 712 -326 753 -33 31 -89 39 -123 17 -33 -21 -72
-109 -108 -240 -15 -55 -61 -212 -101 -350 -41 -137 -99 -351 -129 -475 -30
-124 -84 -317 -120 -430 -35 -113 -86 -279 -111 -370 -25 -91 -79 -266 -119
-390 -41 -124 -81 -259 -91 -300 -10 -41 -21 -79 -25 -83 -13 -14 -75 49 -169
172 -49 65 -123 154 -163 197 -117 126 -151 171 -256 340 -54 87 -135 215
-179 284 -45 69 -105 170 -136 225 -334 610 -631 1230 -745 1555 -221 632
-353 1183 -383 1605 -13 183 -7 632 11 855 26 324 107 786 190 1090 48 178
280 873 345 1036 63 157 132 294 277 548 136 239 184 314 278 441 67 90 256
318 376 452 61 68 401 381 509 469 50 40 283 210 405 296 135 95 659 390 870
490 108 51 464 199 605 251 426 158 1046 286 1585 326 163 12 460 12 627 1z"/>
<path d="M14840 13240 c-47 -11 -82 -53 -78 -94 3 -27 0 -31 -22 -34 -191 -21
-402 -116 -529 -236 -166 -158 -360 -471 -446 -717 -100 -287 -169 -892 -136
-1194 34 -314 163 -711 302 -925 57 -90 210 -269 311 -366 200 -192 376 -273
773 -356 137 -29 166 -32 335 -32 175 -1 194 1 360 36 376 79 629 192 923 411
171 128 290 242 369 352 102 144 281 496 341 670 110 320 145 710 81 904 -19
56 -135 314 -212 471 -56 114 -57 116 -241 303 -276 280 -333 322 -577 427
-72 31 -190 89 -260 128 -151 83 -204 102 -398 142 -79 16 -161 36 -183 44
-85 30 -206 46 -416 56 -121 6 -229 12 -240 14 -12 2 -38 1 -57 -4z m430 -190
c86 -6 157 -18 230 -39 58 -17 162 -42 232 -56 142 -28 201 -49 297 -104 93
-55 193 -104 326 -160 181 -78 237 -120 461 -345 225 -224 200 -188 354 -526
110 -239 114 -256 114 -410 0 -214 -44 -450 -120 -650 -51 -133 -192 -407
-273 -531 -101 -155 -234 -278 -476 -441 -228 -154 -456 -243 -795 -310 -178
-35 -368 -32 -566 10 -252 53 -359 90 -498 171 -119 70 -292 241 -431 427
-111 147 -235 473 -286 749 -60 323 -10 920 105 1261 77 228 260 523 414 665
123 114 337 194 502 187 83 -3 91 -5 121 -33 17 -16 37 -44 45 -61 17 -41 39
-57 74 -57 43 0 70 28 70 75 0 48 -20 87 -72 144 l-41 44 44 0 c24 0 100 -5
169 -10z"/>
<path d="M15229 12546 c-4 -4 -127 -29 -204 -41 -16 -3 -50 -15 -75 -27 -25
-12 -51 -23 -58 -24 -39 -7 -152 -46 -152 -52 0 -4 -15 -13 -32 -21 -18 -8
-47 -25 -64 -38 -17 -13 -34 -23 -38 -23 -4 0 -17 -10 -30 -22 -57 -55 -95
-88 -101 -88 -4 0 -23 -17 -43 -37 -20 -21 -49 -44 -63 -51 -15 -8 -38 -25
-53 -38 -14 -14 -26 -22 -26 -19 0 4 -7 0 -15 -9 -8 -8 -15 -17 -15 -20 0 -12
-35 -46 -47 -46 -7 0 -13 -5 -13 -10 0 -6 -15 -25 -32 -42 -18 -18 -32 -34
-30 -35 1 -2 -5 -17 -14 -34 -18 -36 -31 -289 -14 -289 6 0 6 -9 0 -26 -6 -14
-10 -43 -9 -63 0 -20 1 -61 0 -91 0 -30 1 -68 3 -85 1 -16 4 -42 4 -57 1 -18
8 -28 18 -28 10 0 14 -7 12 -22 -2 -13 5 -32 14 -42 10 -11 18 -31 18 -45 0
-20 22 -101 47 -171 3 -8 5 -27 4 -41 -1 -15 5 -33 13 -42 9 -9 16 -26 16 -39
0 -13 10 -36 21 -50 18 -22 26 -25 40 -17 13 6 19 6 19 -1 0 -5 8 -10 18 -10
18 0 92 -73 92 -91 0 -5 20 -14 45 -20 25 -6 52 -21 60 -32 8 -12 20 -17 29
-14 10 4 16 1 16 -8 0 -9 6 -12 15 -9 8 4 15 1 15 -6 0 -6 5 -8 10 -5 6 4 17
1 25 -5 8 -7 15 -9 15 -5 0 4 7 2 15 -5 8 -7 12 -17 8 -24 -3 -6 3 -2 15 8 19
17 22 17 22 3 0 -21 14 -22 30 -2 16 19 39 19 46 0 5 -13 9 -13 22 -3 8 7 17
12 19 11 46 -30 97 -33 79 -5 -5 8 2 8 24 1 17 -6 27 -16 23 -22 -4 -6 -1 -7
8 -1 20 12 40 14 33 3 -3 -5 2 -9 10 -9 9 0 16 4 16 9 0 5 11 11 25 13 13 3
22 2 20 -2 -7 -11 42 -33 60 -26 9 3 13 2 10 -4 -3 -6 -1 -10 4 -10 6 0 11 5
11 10 0 14 27 12 34 -2 3 -10 9 -8 19 5 14 17 15 17 21 0 6 -15 9 -15 17 -3 8
11 12 12 16 3 3 -10 8 -9 20 2 8 8 20 12 26 8 8 -5 8 -8 -1 -11 -7 -2 -12 -9
-12 -15 0 -6 10 -1 23 11 26 24 47 29 47 10 0 -9 3 -9 12 0 9 9 15 9 27 -1 12
-10 14 -9 8 6 -4 11 -3 16 4 12 6 -4 16 1 23 11 8 11 21 15 35 11 11 -3 19 -1
16 3 -3 5 0 10 5 12 6 2 12 12 14 23 2 15 11 20 35 20 27 0 31 3 31 26 0 15 7
29 15 33 8 3 14 2 12 -2 -1 -4 3 -8 8 -9 6 -1 9 5 7 12 -2 10 3 13 13 9 8 -3
15 -1 15 5 0 6 5 11 11 11 5 0 7 -5 3 -12 -5 -7 -3 -8 5 -4 7 5 10 14 7 22 -3
8 -1 14 4 14 6 0 10 -8 11 -17 0 -14 2 -13 9 5 5 12 12 22 15 22 4 0 3 -6 -1
-12 -4 -7 2 -4 14 6 12 11 22 25 22 32 0 7 6 11 13 9 6 -3 20 9 29 25 10 17
23 29 29 28 6 -2 15 8 19 22 4 14 21 40 38 59 18 18 29 37 26 42 -5 8 10 13
29 10 5 -1 6 3 3 8 -4 5 -1 13 5 16 5 4 8 14 5 22 -4 9 0 21 9 27 8 6 16 25
17 41 1 18 13 39 28 52 14 13 21 23 16 23 -4 0 -1 11 8 25 16 24 17 49 3 71
-4 7 0 25 8 40 8 16 11 31 7 34 -10 6 -9 21 2 38 5 8 4 18 -2 24 -8 8 -8 17
-1 30 6 10 6 18 0 18 -14 0 -22 31 -11 44 11 15 14 61 4 99 -4 17 -2 27 5 27
5 0 8 6 5 14 -3 7 -6 47 -8 88 -1 40 -5 78 -8 83 -3 6 -6 32 -7 60 0 27 -5 51
-11 53 -5 2 -10 10 -10 18 0 8 -9 34 -20 56 -14 29 -18 54 -15 81 4 29 1 45
-11 58 -9 10 -14 27 -11 39 3 11 1 18 -3 15 -10 -6 -23 12 -27 34 -7 48 -15
60 -43 66 -16 4 -30 11 -30 16 0 5 -5 9 -11 9 -7 0 -20 10 -30 22 -11 11 -19
18 -19 15 0 -4 -9 2 -21 14 -11 11 -27 18 -35 15 -8 -3 -14 -1 -14 5 0 5 -12
14 -26 19 -14 6 -23 13 -21 17 3 5 -9 9 -25 10 -17 1 -38 9 -47 16 -9 8 -24
17 -33 20 -10 4 -18 11 -18 17 0 5 -7 10 -15 10 -8 0 -15 3 -15 8 0 4 -15 13
-32 20 -18 7 -47 20 -65 29 -17 8 -60 19 -95 23 -35 4 -70 10 -79 14 -8 4 -17
5 -20 2z"/>
<path d="M15085 10500 c3 -5 8 -10 11 -10 2 0 4 5 4 10 0 6 -5 10 -11 10 -5 0
-7 -4 -4 -10z"/>
<path d="M10415 12890 c-91 -11 -284 -78 -410 -144 -130 -68 -377 -241 -478
-335 -200 -189 -383 -462 -487 -728 -90 -229 -153 -597 -154 -893 -1 -207 7
-248 86 -465 86 -236 160 -355 338 -538 223 -231 296 -278 605 -390 270 -98
338 -111 580 -110 485 1 637 43 1007 276 199 125 285 195 442 361 334 355 409
468 541 821 131 349 153 465 135 711 -29 395 -60 484 -249 709 -192 231 -237
268 -429 361 -85 41 -196 99 -247 130 -126 75 -232 109 -470 149 -110 19 -252
43 -315 54 -95 17 -378 44 -415 39 -5 0 -41 -4 -80 -8z m132 -192 c31 -29 85
-29 115 -1 21 20 28 21 96 13 40 -5 153 -23 250 -40 449 -79 482 -88 642 -185
50 -30 146 -80 214 -111 78 -35 143 -72 177 -100 55 -48 240 -259 291 -332 67
-98 98 -223 119 -487 17 -223 0 -316 -118 -630 -89 -235 -130 -321 -208 -430
-121 -169 -401 -467 -529 -564 -103 -78 -368 -240 -465 -283 -139 -64 -315
-88 -625 -88 -206 0 -286 14 -496 90 -210 75 -312 127 -400 202 -104 90 -260
255 -311 329 -81 120 -180 362 -213 523 -30 143 -10 423 50 726 70 349 229
647 493 924 84 88 375 295 506 361 191 96 362 130 412 83z"/>
<path d="M10772 12020 c2 -9 -10 -14 -35 -16 -21 -2 -46 -9 -54 -16 -9 -7 -26
-13 -37 -14 -31 -1 -69 -14 -88 -31 -9 -8 -21 -12 -27 -9 -5 4 -16 -2 -23 -12
-9 -13 -23 -18 -48 -16 -97 8 -129 5 -212 -24 -89 -31 -148 -64 -148 -84 0 -6
-3 -9 -6 -5 -6 6 -30 -21 -91 -99 -13 -15 -23 -36 -23 -45 0 -10 -12 -27 -26
-38 -14 -11 -23 -24 -20 -29 3 -6 -1 -15 -10 -22 -8 -7 -12 -20 -9 -28 3 -8 0
-21 -6 -28 -6 -8 -9 -20 -6 -28 3 -8 3 -17 -1 -20 -9 -9 -12 -31 -17 -114 -3
-41 -7 -85 -9 -98 -3 -13 -1 -24 3 -24 5 0 8 -15 8 -32 -1 -41 12 -88 24 -88
5 0 7 -11 5 -25 -3 -17 0 -25 10 -25 10 0 13 -7 8 -24 -3 -14 -2 -31 2 -38 5
-7 9 -20 11 -28 1 -8 7 -16 12 -18 6 -2 11 -12 11 -23 0 -10 6 -19 14 -19 10
0 13 -9 10 -30 -3 -17 -1 -30 5 -30 6 0 11 -13 11 -30 0 -21 5 -30 16 -30 11
0 13 -6 9 -19 -3 -11 -1 -22 5 -26 6 -3 8 -11 5 -16 -4 -5 -1 -9 4 -9 6 0 11
-9 11 -19 0 -33 11 -51 32 -51 16 0 19 -5 16 -24 -3 -16 2 -28 14 -37 10 -7
18 -19 18 -26 0 -7 9 -13 20 -13 11 0 23 -7 26 -15 4 -8 10 -12 15 -9 17 10
31 -7 18 -22 -10 -12 -9 -13 6 -8 11 5 21 1 27 -9 5 -10 16 -17 23 -17 13 0
18 -10 17 -30 0 -3 11 -6 25 -7 35 -2 73 -23 73 -41 0 -10 8 -13 25 -9 26 4
52 -22 37 -38 -4 -4 4 -4 16 0 18 5 27 2 38 -13 8 -12 24 -22 37 -24 12 -2 21
-9 20 -15 -2 -8 4 -10 14 -6 10 4 14 2 10 -4 -3 -5 0 -10 8 -10 8 0 12 4 10 8
-3 3 8 9 23 12 15 3 29 1 30 -4 2 -5 9 -6 15 -2 7 4 6 -1 -2 -11 -13 -16 -12
-17 15 -10 16 4 35 11 42 17 8 6 17 5 27 -3 12 -10 15 -10 15 1 1 10 4 9 14
-3 8 -11 16 -14 22 -8 5 5 18 11 29 13 11 2 28 7 38 12 9 4 24 4 33 1 9 -4 13
-2 8 5 -5 8 -1 8 13 0 17 -9 22 -6 32 16 10 22 14 24 22 12 5 -8 9 -9 9 -2 0
6 10 13 22 15 12 2 28 13 34 26 6 13 15 24 20 24 21 1 33 11 27 22 -3 6 -3 8
2 4 4 -4 14 -3 22 4 11 9 12 7 8 -8 -4 -13 -2 -12 6 4 7 12 15 22 19 22 4 0
26 18 49 40 22 22 39 40 36 40 -3 0 -1 9 5 20 6 11 17 20 25 20 14 0 19 11 16
38 -1 6 3 12 9 12 5 0 10 9 10 20 0 14 7 20 21 20 17 0 20 4 15 20 -3 11 -8
28 -11 38 -4 12 4 22 25 34 16 9 31 25 31 35 3 38 4 44 15 51 17 11 38 82 37
124 -1 28 3 37 19 41 14 4 18 11 13 25 -3 11 -1 23 5 27 6 3 8 11 4 16 -3 5 0
17 8 26 7 9 11 19 10 22 -18 31 -22 43 -15 54 4 6 8 48 9 92 1 44 5 112 9 150
9 88 7 149 -6 153 -6 3 -6 9 2 18 8 10 7 17 -5 30 -9 8 -14 20 -11 25 4 5 1 9
-5 9 -6 0 -9 4 -6 8 5 8 -34 48 -52 54 -4 2 -7 11 -6 20 0 10 -9 21 -20 24
-24 8 -71 56 -71 72 0 7 -4 12 -10 11 -5 0 -12 9 -17 20 -4 12 -18 25 -30 30
-31 12 -70 50 -63 62 4 5 -1 9 -9 9 -8 0 -19 6 -23 13 -14 23 -75 43 -155 50
-10 1 -18 4 -18 8 0 3 -12 4 -27 2 -60 -9 -114 -10 -119 -1 -3 5 -15 6 -25 3
-11 -4 -27 -1 -35 6 -12 10 -15 10 -12 -1z"/>
<path d="M11555 9002 c-246 -74 -609 -294 -1325 -802 -250 -178 -270 -196
-270 -243 0 -42 36 -77 80 -77 25 0 172 94 535 343 64 43 256 172 475 317 116
77 244 149 381 214 145 69 200 87 269 89 75 2 137 -29 397 -199 582 -381 654
-423 803 -482 145 -57 312 -78 384 -48 19 8 110 61 202 119 216 134 532 317
655 379 53 26 136 61 185 77 261 84 366 68 744 -114 312 -149 462 -189 725
-189 117 0 182 4 245 17 142 31 937 319 978 356 31 27 31 89 -1 119 -41 38
-88 30 -326 -59 -604 -227 -675 -248 -851 -256 -231 -9 -380 28 -680 172 -377
181 -537 213 -787 155 -98 -23 -227 -72 -340 -129 -114 -57 -458 -256 -646
-373 -87 -54 -168 -103 -181 -107 -74 -29 -340 77 -541 215 -53 36 -161 105
-238 153 -78 48 -207 132 -287 186 -80 54 -183 116 -230 139 -81 39 -90 41
-190 43 -78 2 -121 -2 -165 -15z"/>
</g>
</svg>
