<?xml version="1.0" standalone="no"?>
<!DOCTYPE svg PUBLIC "-//W3C//DTD SVG 20010904//EN"
 "http://www.w3.org/TR/2001/REC-SVG-20010904/DTD/svg10.dtd">
<svg version="1.0" xmlns="http://www.w3.org/2000/svg"
 width="2732.000000pt" height="2048.000000pt" viewBox="0 0 2732.000000 2048.000000"
 preserveAspectRatio="xMidYMid meet">

<g transform="translate(0.000000,2048.000000) scale(0.100000,-0.100000)"
fill="#000000" stroke="none">
<path d="M14275 19469 c-707 -17 -1459 -114 -2230 -285 -280 -63 -693 -178
-1025 -286 -2807 -917 -5108 -2847 -6350 -5328 -594 -1186 -929 -2480 -969
-3746 -63 -1960 533 -3852 1711 -5429 457 -612 1020 -1193 1628 -1677 1564
-1247 3533 -2008 5650 -2182 450 -37 1104 -49 1495 -27 1929 110 3760 671
5385 1649 1200 722 2250 1668 3066 2762 761 1020 1321 2188 1619 3380 204 812
285 1550 263 2383 -41 1597 -537 3152 -1438 4507 -584 880 -1352 1676 -2235
2320 -882 642 -1932 1162 -3002 1485 -1165 353 -2303 504 -3568 474z m910 -89
c2449 -130 4691 -1030 6391 -2566 165 -149 526 -512 670 -674 679 -763 1216
-1620 1583 -2528 347 -859 547 -1753 602 -2697 15 -255 6 -913 -15 -1165 -101
-1171 -402 -2238 -932 -3300 -483 -968 -1078 -1791 -1864 -2581 -267 -269
-385 -378 -630 -590 -1510 -1297 -3426 -2191 -5430 -2533 -1937 -331 -3893
-168 -5655 469 -1807 655 -3327 1759 -4418 3210 -919 1223 -1486 2640 -1657
4140 -36 317 -41 412 -47 821 -6 405 2 631 33 959 173 1863 967 3688 2263
5200 363 423 862 912 1291 1266 1124 926 2428 1629 3832 2064 912 283 1886
457 2828 504 242 12 935 12 1155 1z"/>
</g>
</svg>
