<?xml version="1.0" standalone="no"?>
<!DOCTYPE svg PUBLIC "-//W3C//DTD SVG 20010904//EN"
 "http://www.w3.org/TR/2001/REC-SVG-20010904/DTD/svg10.dtd">
<svg version="1.0" xmlns="http://www.w3.org/2000/svg"
 width="2000" height="2000" viewBox="0 0 2000 2000"
 preserveAspectRatio="xMidYMid meet">

<g transform="translate(0.000000,2048.000000) scale(0.100000,-0.100000)"
fill="#000000" stroke="none">
<path d="M12802 12558 c-6 -8 -67 -588 -141 -1358 -72 -740 -135 -1358 -140
-1375 -5 -16 -9 -57 -9 -90 0 -33 -12 -181 -27 -330 -14 -148 -25 -280 -22
-292 4 -24 -18 -45 -100 -94 l-33 -19 0 -123 c0 -131 11 -167 51 -167 10 0 19
-6 19 -12 0 -7 -91 -509 -202 -1116 -181 -995 -200 -1105 -186 -1119 13 -12
52 -16 210 -19 135 -2 203 -8 220 -17 19 -10 96 -13 304 -15 154 -1 452 -5
664 -8 341 -6 387 -5 398 9 12 15 -44 270 -238 1082 -146 611 -310 1319 -310
1339 0 14 8 30 18 35 17 9 19 21 14 138 -3 86 -10 135 -19 149 -10 15 -70 540
-194 1690 -99 918 -186 1680 -193 1694 -13 29 -66 40 -84 18z m102 -913 c30
-269 52 -492 51 -493 -4 -4 -208 -20 -213 -17 -2 1 94 997 99 1031 3 19 11
-47 63 -521z m56 -587 c8 -39 25 -220 21 -223 -7 -7 -180 -6 -224 2 l-39 6 7
86 c9 112 11 119 43 124 30 5 192 8 192 5z m5 -651 l70 -2 12 -105 c8 -64 9
-108 3 -114 -10 -10 -191 -14 -318 -6 l-83 5 5 40 c3 22 8 72 12 110 3 39 8
73 10 77 3 4 53 5 112 2 59 -3 139 -6 177 -7z m-175 -317 c53 -6 135 -8 186
-5 l91 7 11 -101 c7 -56 12 -115 12 -131 l0 -30 -235 0 c-175 0 -235 3 -235
12 0 25 22 244 26 256 2 7 13 10 26 8 13 -3 66 -10 118 -16z m324 -402 c3 -24
9 -78 12 -120 l7 -78 -69 0 c-38 0 -161 3 -273 7 l-203 6 7 106 c4 58 9 109
12 114 2 4 116 7 252 7 l249 0 6 -42z m-388 -805 c-3 -16 -13 -89 -22 -163
-10 -74 -23 -142 -31 -151 -14 -17 -211 -105 -218 -97 -8 7 47 283 58 297 15
17 199 141 210 141 5 0 6 -12 3 -27z m294 -21 l145 -37 33 -134 c18 -74 30
-136 28 -138 -6 -6 -349 36 -398 48 -20 5 -39 13 -42 18 -3 4 4 70 14 147 11
76 20 140 20 142 0 5 27 -2 200 -46z m14 -380 l220 -28 26 -112 c17 -72 23
-112 16 -112 -6 -1 -130 18 -276 42 l-265 43 1 60 c1 135 1 135 32 135 15 -1
126 -13 246 -28z m-371 -64 c-3 -24 -9 -49 -12 -55 -9 -17 -255 -242 -260
-238 -2 2 5 50 15 106 15 88 22 106 46 128 26 24 178 98 205 100 7 1 9 -13 6
-41z m354 -238 c133 -22 258 -40 277 -40 20 0 36 -3 36 -6 0 -3 16 -75 36
-160 20 -86 34 -157 32 -159 -5 -5 -562 77 -655 96 -61 12 -59 1 -38 159 23
165 22 161 48 155 12 -3 131 -23 264 -45z m-408 -143 l-22 -166 -91 -41 c-50
-23 -109 -55 -131 -71 -28 -21 -41 -26 -43 -17 -1 8 6 59 17 115 l20 101 78
74 c163 154 188 176 191 173 2 -2 -6 -78 -19 -168z m463 -269 l357 -53 22 -93
c11 -51 19 -95 17 -97 -2 -2 -33 5 -68 16 -167 53 -452 86 -648 76 -112 -6
-112 -6 -108 16 3 12 8 45 11 72 13 105 16 115 39 115 11 1 182 -23 378 -52z
m-507 -65 c-11 -107 -8 -104 -154 -158 -72 -26 -133 -46 -135 -44 -4 4 2 44
19 126 4 15 10 20 25 16 12 -3 37 8 69 31 39 29 160 93 180 96 2 0 0 -30 -4
-67z m595 -196 c200 -33 321 -76 342 -122 12 -26 217 -888 212 -893 -5 -6
-1202 11 -1212 17 -6 4 16 195 59 511 38 278 69 505 69 506 0 1 96 0 213 -1
144 -1 246 -7 317 -18z m-630 -29 c0 -7 -28 -218 -61 -468 -41 -305 -66 -460
-76 -470 -11 -12 -40 -15 -150 -13 -75 2 -138 5 -140 7 -3 2 31 197 74 432
l78 428 30 7 c17 4 75 25 130 47 115 46 115 46 115 30z"/>
</g>
</svg>
